# xmcd
#
# Track frame offsets:
#	150
#	900
#	1650
#	2400
#	91770
#
# Disc length: 4440 seconds
#
# Revision: 1
# Processed by: cddbd v1.5PL3 Copyright (c) Steve Scherf et al.
# Submitted via: CDex 1.50Beta5
#
DISCID=16115605
DTITLE=Edyta - Impossible
DYEAR=2002
DGENRE=Electronica/Dance -> Club Dance
TTITLE0=Impossible ( Single Version )
TTITLE1=Impossible ( Paradise City Club Mix )
TTITLE2=Impossible ( Roy Malone King Mix )
TTITLE3=Sleep With Me ( Album Version )
TTITLE4=Wi娼ホ Ich Nicht
EXTD=
EXTT0=
EXTT1=
EXTT2=
EXTT3=
EXTT4=
PLAYORDER=
